<?xml version="1.0" encoding="utf-8"?>
<!-- Generator: Adobe Illustrator 26.5.0, SVG Export Plug-In . SVG Version: 6.00 Build 0)  -->
<svg version="1.1" id="Layer_1" xmlns="http://www.w3.org/2000/svg" xmlns:xlink="http://www.w3.org/1999/xlink" x="0px" y="0px"
	 viewBox="0 0 640 360" style="enable-background:new 0 0 640 360;" xml:space="preserve">
<style type="text/css">
	.st0{fill:none;stroke:#DDDDDD;stroke-width:9;stroke-miterlimit:20;}
	.st1{fill:#FFFFFF;stroke:#DDDDDD;stroke-width:9;stroke-miterlimit:20;}
	.st2{fill:#DDDDDD;}
</style>
<g>
	<path class="st0" d="M280,179.6v-41c0-7.4,6-13.4,13.4-13.4h34.8c17.5,0,31.8,14.2,31.8,31.8v4.2c0,17.5-14.3,31.8-31.8,31.8h-0.4
		v28.4c0,7.4-6,13.4-13.4,13.4h-20.9c-7.4,0-13.4-6-13.4-13.4v-82.8c0-7.4,6-13.4,13.4-13.4h20.8"/>
	<path class="st1" d="M327.7,193h-14.1c-7.8,0-14.1-6.3-14.1-14.1l0,0c0-7.8,6.4-14.1,14.1-14.1l0,0c7.8,0,14.1,6.3,14.1,14.1V193z"
		/>
</g>
<g>
	<path class="st2" d="M208.5,271.5h3.8v20.1h-3.8V271.5z"/>
	<path class="st2" d="M216.2,276.8h3.7v1.7c0.6-0.7,1.3-1.2,2.1-1.6s1.6-0.5,2.6-0.5c0.9,0,1.8,0.2,2.5,0.7s1.4,1.1,1.8,2
		c0.6-0.9,1.3-1.5,2.2-2c0.9-0.5,1.8-0.7,2.8-0.7c1.1,0,2,0.2,2.8,0.7s1.4,1.1,1.7,1.9s0.5,2.1,0.5,3.9v8.7h-3.8v-7.5
		c0-1.7-0.2-2.8-0.6-3.4c-0.4-0.6-1-0.9-1.9-0.9c-0.6,0-1.2,0.2-1.7,0.5s-0.9,0.9-1.1,1.5s-0.4,1.7-0.4,3.1v6.7h-3.8v-7.2
		c0-1.3-0.1-2.3-0.3-2.9c-0.2-0.6-0.5-1-0.9-1.3c-0.4-0.3-0.9-0.4-1.4-0.4c-0.6,0-1.2,0.2-1.7,0.6s-0.9,0.9-1.1,1.6
		c-0.3,0.7-0.4,1.7-0.4,3.1v6.6h-3.7V276.8z"/>
	<path class="st2" d="M253.5,276.8h3.7v14.9h-3.7v-1.6c-0.7,0.7-1.5,1.2-2.2,1.5s-1.5,0.5-2.4,0.5c-1.9,0-3.6-0.7-5-2.2
		c-1.4-1.5-2.1-3.3-2.1-5.6c0-2.3,0.7-4.2,2-5.6s3-2.2,4.9-2.2c0.9,0,1.7,0.2,2.5,0.5c0.8,0.3,1.5,0.8,2.2,1.5V276.8z M249.6,279.8
		c-1.2,0-2.1,0.4-2.9,1.2s-1.1,1.9-1.1,3.1c0,1.3,0.4,2.3,1.2,3.2c0.8,0.8,1.7,1.2,2.9,1.2c1.2,0,2.1-0.4,2.9-1.2s1.2-1.9,1.2-3.2
		c0-1.3-0.4-2.3-1.2-3.1S250.8,279.8,249.6,279.8z"/>
	<path class="st2" d="M272,276.8h3.7v12.7c0,2.5-0.5,4.4-1.5,5.6c-1.4,1.6-3.4,2.4-6.1,2.4c-1.5,0-2.7-0.2-3.7-0.5
		c-1-0.4-1.8-0.9-2.5-1.6s-1.2-1.6-1.5-2.6h4.1c0.4,0.4,0.8,0.7,1.4,1s1.3,0.3,2,0.3c1,0,1.8-0.2,2.4-0.5c0.6-0.3,1-0.7,1.3-1.2
		c0.3-0.5,0.4-1.3,0.4-2.5c-0.7,0.7-1.3,1.1-2.1,1.4c-0.7,0.3-1.5,0.4-2.4,0.4c-2,0-3.7-0.7-5.1-2.2c-1.4-1.4-2.1-3.3-2.1-5.5
		c0-2.4,0.7-4.3,2.2-5.7c1.3-1.3,2.9-1.9,4.7-1.9c0.9,0,1.7,0.2,2.4,0.5c0.8,0.3,1.5,0.8,2.3,1.6V276.8z M268.1,279.9
		c-1.2,0-2.1,0.4-2.9,1.2s-1.1,1.8-1.1,3c0,1.2,0.4,2.3,1.2,3c0.8,0.8,1.8,1.2,3,1.2c1.2,0,2.1-0.4,2.9-1.2s1.1-1.8,1.1-3
		c0-1.2-0.4-2.2-1.1-3C270.3,280.3,269.3,279.9,268.1,279.9z"/>
	<path class="st2" d="M294.4,285.3h-12c0.2,1.1,0.6,1.9,1.4,2.5s1.7,0.9,2.9,0.9c1.4,0,2.6-0.5,3.6-1.5l3.1,1.5
		c-0.8,1.1-1.7,1.9-2.8,2.5s-2.4,0.8-3.9,0.8c-2.3,0-4.2-0.7-5.7-2.2c-1.5-1.5-2.2-3.3-2.2-5.5c0-2.3,0.7-4.2,2.2-5.7
		s3.3-2.2,5.5-2.2c2.3,0,4.2,0.8,5.7,2.2c1.5,1.5,2.2,3.5,2.2,5.9L294.4,285.3z M290.7,282.4c-0.2-0.8-0.7-1.5-1.5-2
		c-0.7-0.5-1.6-0.8-2.5-0.8c-1,0-2,0.3-2.7,0.9c-0.5,0.4-0.9,1-1.4,1.9H290.7z"/>
	<path class="st2" d="M305.7,271.5h3.7l8.6,13.2v-13.2h3.8v20.1h-3.7l-8.6-13.2v13.2h-3.8V271.5z"/>
	<path class="st2" d="M333,276.4c1.4,0,2.7,0.4,4,1.1s2.2,1.7,2.9,2.9s1,2.5,1,3.9c0,1.4-0.3,2.7-1,3.9s-1.6,2.2-2.9,2.9s-2.5,1-4,1
		c-2.1,0-4-0.8-5.5-2.3s-2.3-3.4-2.3-5.5c0-2.3,0.9-4.3,2.6-5.8C329.3,277.1,331,276.4,333,276.4z M333,279.9
		c-1.2,0-2.1,0.4-2.9,1.2s-1.2,1.8-1.2,3.1c0,1.3,0.4,2.3,1.1,3.1c0.8,0.8,1.7,1.2,2.9,1.2s2.1-0.4,2.9-1.2s1.2-1.9,1.2-3.1
		s-0.4-2.3-1.1-3.1S334.2,279.9,333,279.9z"/>
	<path class="st2" d="M344.3,271.3h3.7v5.5h2.2v3.2h-2.2v11.7h-3.7V280h-1.9v-3.2h1.9V271.3z"/>
	<path class="st2" d="M360.6,271.5h10v3.7h-6.2v3.7h6.2v3.7h-6.2v9.1h-3.8V271.5z"/>
	<path class="st2" d="M380.5,276.4c1.4,0,2.7,0.4,4,1.1s2.2,1.7,2.9,2.9s1,2.5,1,3.9c0,1.4-0.3,2.7-1,3.9s-1.6,2.2-2.9,2.9
		s-2.5,1-4,1c-2.1,0-4-0.8-5.5-2.3s-2.3-3.4-2.3-5.5c0-2.3,0.9-4.3,2.6-5.8C376.9,277.1,378.6,276.4,380.5,276.4z M380.6,279.9
		c-1.2,0-2.1,0.4-2.9,1.2s-1.2,1.8-1.2,3.1c0,1.3,0.4,2.3,1.1,3.1c0.8,0.8,1.7,1.2,2.9,1.2s2.1-0.4,2.9-1.2s1.2-1.9,1.2-3.1
		s-0.4-2.3-1.1-3.1S381.8,279.9,380.6,279.9z"/>
	<path class="st2" d="M391.5,276.8h3.8v7.2c0,1.4,0.1,2.4,0.3,2.9c0.2,0.5,0.5,1,0.9,1.3s0.9,0.5,1.6,0.5s1.1-0.1,1.6-0.4
		c0.4-0.3,0.8-0.7,1-1.3c0.2-0.4,0.2-1.3,0.2-2.7v-7.3h3.7v6.3c0,2.6-0.2,4.4-0.6,5.3c-0.5,1.2-1.2,2.1-2.2,2.7s-2.2,0.9-3.7,0.9
		c-1.6,0-3-0.4-4-1.1s-1.7-1.7-2.1-3c-0.3-0.9-0.4-2.5-0.4-4.9V276.8z"/>
	<path class="st2" d="M408.3,276.8h3.7v1.5c0.8-0.7,1.6-1.2,2.3-1.5c0.7-0.3,1.4-0.4,2.1-0.4c1.5,0,2.7,0.5,3.8,1.5
		c0.9,0.9,1.3,2.2,1.3,3.9v9.8h-3.7v-6.5c0-1.8-0.1-3-0.2-3.5s-0.4-1-0.8-1.3c-0.4-0.3-0.9-0.5-1.5-0.5c-0.8,0-1.4,0.3-1.9,0.8
		c-0.5,0.5-0.9,1.2-1.1,2.1c-0.1,0.5-0.2,1.5-0.2,3v6h-3.7V276.8z"/>
	<path class="st2" d="M425.5,271.3h3.7v5.5h2.2v3.2h-2.2v11.7h-3.7V280h-1.9v-3.2h1.9V271.3z"/>
</g>
</svg>
