<?xml version="1.0" encoding="utf-8"?>
<!-- Generator: Adobe Illustrator 26.5.0, SVG Export Plug-In . SVG Version: 6.00 Build 0)  -->
<svg version="1.1" id="Layer_1" xmlns="http://www.w3.org/2000/svg" xmlns:xlink="http://www.w3.org/1999/xlink" x="0px" y="0px"
	 viewBox="0 0 474.9 166.9" style="enable-background:new 0 0 474.9 166.9;" xml:space="preserve">
<style type="text/css">
	.st0{fill:#FF5A5F;stroke:#FF5A5F;stroke-width:2;stroke-miterlimit:10;}
	.st1{fill:#F15C61;}
</style>
<g>
	<path class="st0" d="M57.9,165.5H28.3c-13,0-23.5-10.5-23.5-23.5V24.9c0-13,10.5-23.5,23.5-23.5h49.2c27.3,0,49.5,22.2,49.5,49.5v6
		c0,26-20.1,47.4-45.6,49.3V142C81.4,155,70.9,165.5,57.9,165.5z M13.8,82.9V142c0,8,6.5,14.5,14.5,14.5h29.6
		c8,0,14.5-6.5,14.5-14.5V97.3h5.1c22.3,0,40.5-18.2,40.5-40.5v-6c0-22.3-18.2-40.5-40.5-40.5H28.3c-8,0-14.5,6.5-14.5,14.5V82.9z"
		/>
	<g>
		<path class="st0" d="M81.3,106.3H56.8c-13.5,0-24.5-11-24.5-24.5s11-24.5,24.5-24.5s24.5,11,24.5,24.5V106.3z M56.8,66.4
			c-8.5,0-15.5,7-15.5,15.5c0,8.5,7,15.5,15.5,15.5h15.5V81.9C72.3,73.3,65.4,66.4,56.8,66.4z"/>
	</g>
</g>
<g>
	<path class="st1" d="M204.9,58.1h13.3v53.1h-13.3v-5.6c-2.6,2.5-5.2,4.3-7.8,5.3c-2.6,1.1-5.5,1.6-8.5,1.6c-6.9,0-12.8-2.7-17.8-8
		c-5-5.3-7.5-11.9-7.5-19.8c0-8.2,2.4-14.9,7.3-20.2c4.8-5.2,10.7-7.9,17.7-7.9c3.2,0,6.2,0.6,9,1.8c2.8,1.2,5.4,3,7.8,5.4V58.1z
		 M190.9,69c-4.1,0-7.5,1.5-10.3,4.4c-2.7,2.9-4.1,6.6-4.1,11.2c0,4.6,1.4,8.4,4.2,11.3c2.8,3,6.2,4.4,10.2,4.4
		c4.2,0,7.7-1.5,10.4-4.4c2.8-2.9,4.1-6.7,4.1-11.5c0-4.6-1.4-8.4-4.1-11.2C198.6,70.5,195.2,69,190.9,69z"/>
	<path class="st1" d="M237,36.2c2.3,0,4.3,0.8,6,2.5c1.7,1.7,2.5,3.7,2.5,6.2c0,2.4-0.8,4.4-2.5,6.1c-1.7,1.7-3.6,2.5-5.9,2.5
		c-2.4,0-4.4-0.9-6.1-2.6s-2.5-3.8-2.5-6.2c0-2.3,0.8-4.3,2.5-6C232.6,37.1,234.6,36.2,237,36.2z M230.3,58.1h13.3v53.1h-13.3V58.1z
		"/>
	<path class="st1" d="M252.6,58.1H264v6.7c1.2-2.6,2.9-4.6,4.9-6s4.3-2.1,6.7-2.1c1.7,0,3.5,0.5,5.4,1.4L277,69.6
		c-1.6-0.8-2.8-1.2-3.9-1.2c-2.1,0-3.8,1.3-5.2,3.8s-2.1,7.5-2.1,14.9l0,2.6v21.5h-13.2V58.1z"/>
	<path class="st1" d="M300.9,58.1V64c2.4-2.4,5-4.2,7.8-5.4c2.8-1.2,5.8-1.8,9-1.8c6.9,0,12.8,2.6,17.7,7.9c4.8,5.2,7.3,12,7.3,20.2
		c0,7.9-2.5,14.5-7.5,19.8c-5,5.3-11,8-17.8,8c-3.1,0-5.9-0.5-8.5-1.6s-5.3-2.9-7.9-5.3v25h-13.2V58.1H300.9z M315,69
		c-4.2,0-7.7,1.4-10.4,4.3c-2.8,2.9-4.2,6.6-4.2,11.2c0,4.7,1.4,8.5,4.2,11.5c2.8,2.9,6.2,4.4,10.4,4.4c4.1,0,7.5-1.5,10.3-4.4
		c2.8-3,4.2-6.7,4.2-11.3c0-4.6-1.4-8.3-4.1-11.2C322.6,70.5,319.1,69,315,69z"/>
	<path class="st1" d="M353.7,58.1h13.3v5.4c3-2.5,5.8-4.3,8.2-5.3s5-1.5,7.5-1.5c5.3,0,9.7,1.8,13.4,5.5c3.1,3.1,4.6,7.7,4.6,13.9
		v35.1h-13.2V88c0-6.3-0.3-10.6-0.9-12.6c-0.6-2.1-1.6-3.7-3-4.8c-1.4-1.1-3.2-1.6-5.2-1.6c-2.7,0-5,0.9-6.9,2.7
		c-1.9,1.8-3.3,4.3-4,7.5c-0.4,1.7-0.6,5.3-0.6,10.8v21.3h-13.3V58.1z"/>
	<path class="st1" d="M427,58.1V64c2.4-2.4,5-4.2,7.8-5.4c2.8-1.2,5.8-1.8,9-1.8c6.9,0,12.8,2.6,17.7,7.9c4.8,5.2,7.3,12,7.3,20.2
		c0,7.9-2.5,14.5-7.5,19.8c-5,5.3-11,8-17.8,8c-3.1,0-5.9-0.5-8.5-1.6s-5.3-2.9-7.9-5.3v25h-13.2V58.1H427z M441,69
		c-4.2,0-7.7,1.4-10.4,4.3c-2.8,2.9-4.2,6.6-4.2,11.2c0,4.7,1.4,8.5,4.2,11.5c2.8,2.9,6.2,4.4,10.4,4.4c4.1,0,7.5-1.5,10.3-4.4
		c2.8-3,4.2-6.7,4.2-11.3c0-4.6-1.4-8.3-4.1-11.2C448.6,70.5,445.1,69,441,69z"/>
</g>
</svg>
