<?xml version="1.0" encoding="utf-8"?>
<!-- Generator: Adobe Illustrator 26.5.0, SVG Export Plug-In . SVG Version: 6.00 Build 0)  -->
<svg version="1.1" id="Layer_1" xmlns="http://www.w3.org/2000/svg" xmlns:xlink="http://www.w3.org/1999/xlink" x="0px" y="0px"
	 viewBox="0 0 127.2 168.7" style="enable-background:new 0 0 127.2 168.7;" xml:space="preserve">
<style type="text/css">
	.st0{fill:none;stroke:#F26664;stroke-width:9;stroke-miterlimit:20;}
	.st1{fill:#FFFFFF;stroke:#F26664;stroke-width:9;stroke-miterlimit:20;}
</style>
<g>
	<path class="st0" d="M7,83.2v-58c0-10.5,8.5-19,19-19h49.2c24.8,0,45,20.1,45,45v6c0,24.8-20.2,45-45,45h-0.6v40.2
		c0,10.5-8.5,19-19,19H26c-10.5,0-19-8.5-19-19V25.2c0-10.5,8.5-19,19-19h29.5"/>
	<path class="st1" d="M74.5,102.2h-20c-11,0-20-8.9-20-20l0,0c0-11.1,9-20,20-20l0,0c11,0,20,8.9,20,20V102.2z"/>
</g>
</svg>
