<?xml version="1.0" encoding="utf-8"?>
<!-- Generator: Adobe Illustrator 26.5.0, SVG Export Plug-In . SVG Version: 6.00 Build 0)  -->
<svg version="1.1" id="Layer_1" xmlns="http://www.w3.org/2000/svg" xmlns:xlink="http://www.w3.org/1999/xlink" x="0px" y="0px"
	 viewBox="0 0 455.3 166.9" style="enable-background:new 0 0 455.3 166.9;" xml:space="preserve">
<style type="text/css">
	.st0{fill:none;stroke:#F26664;stroke-width:9;stroke-miterlimit:20;}
	.st1{fill:#FFFFFF;stroke:#F26664;stroke-width:9;stroke-miterlimit:20;}
	.st2{fill:#F26664;stroke:#F26664;stroke-width:3;stroke-miterlimit:10;}
	.st3{fill:#F26664;stroke:#F26664;stroke-width:1.75;stroke-miterlimit:10;}
</style>
<g>
	<path class="st0" d="M6.6,83.6v-58c0-10.5,8.5-19,19-19h49.2c24.8,0,45,20.1,45,45v6c0,24.8-20.2,45-45,45h-0.6v40.2
		c0,10.5-8.5,19-19,19H25.6c-10.5,0-19-8.5-19-19V25.6c0-10.5,8.5-19,19-19h29.5"/>
	<path class="st1" d="M74.1,102.6h-20c-11,0-20-8.9-20-20l0,0c0-11.1,9-20,20-20l0,0c11,0,20,8.9,20,20V102.6z"/>
</g>
<g>
	<g>
		<path class="st2" d="M200.9,58.9V112h-6.7v-9.1c-2.9,3.5-6.1,6.1-9.6,7.9s-7.5,2.6-11.7,2.6c-7.5,0-13.9-2.7-19.3-8.2
			c-5.3-5.4-8-12.1-8-19.9c0-7.7,2.7-14.2,8.1-19.6s11.8-8.1,19.4-8.1c4.4,0,8.3,0.9,11.8,2.8c3.5,1.9,6.6,4.6,9.3,8.3v-9.8
			L200.9,58.9L200.9,58.9z M173.6,64.1c-3.8,0-7.3,0.9-10.5,2.8c-3.2,1.9-5.8,4.5-7.7,7.9s-2.9,7-2.9,10.7c0,3.7,1,7.3,2.9,10.7
			c1.9,3.4,4.5,6.1,7.7,8s6.7,2.8,10.4,2.8c3.7,0,7.3-0.9,10.6-2.8s5.9-4.4,7.7-7.7c1.8-3.2,2.7-6.8,2.7-10.9c0-6.1-2-11.3-6.1-15.4
			C184.5,66.2,179.5,64.1,173.6,64.1z"/>
		<path class="st2" d="M218.7,37c1.6,0,2.9,0.5,4,1.7c1.1,1.1,1.6,2.4,1.6,4c0,1.5-0.6,2.8-1.6,4c-1.1,1.1-2.4,1.7-4,1.7
			c-1.5,0-2.8-0.5-3.9-1.7s-1.6-2.4-1.6-4c0-1.6,0.6-2.9,1.6-4C215.8,37.5,217.1,37,218.7,37z M215.3,58.9h6.8V112h-6.8V58.9z"/>
		<path class="st2" d="M233.7,58.9h7v7.8c2.1-3.1,4.3-5.3,6.6-6.9c2.3-1.5,4.7-2.3,7.2-2.3c1.9,0,3.9,0.6,6,1.8l-3.6,5.8
			c-1.4-0.6-2.6-0.9-3.6-0.9c-2.3,0-4.5,0.9-6.6,2.8c-2.1,1.9-3.7,4.8-4.8,8.7c-0.9,3-1.3,9.2-1.3,18.4v18h-7L233.7,58.9L233.7,58.9
			z"/>
		<path class="st2" d="M266.5,58.9h6.8v9.8c2.7-3.7,5.8-6.5,9.3-8.3c3.5-1.9,7.4-2.8,11.8-2.8c7.5,0,14,2.7,19.4,8.1
			c5.4,5.4,8,12,8,19.6c0,7.8-2.7,14.4-8,19.9c-5.3,5.4-11.7,8.2-19.2,8.2c-4.2,0-8.1-0.9-11.7-2.6s-6.8-4.4-9.6-7.9v28.6h-6.8V58.9
			z M293.8,64.1c-5.9,0-10.9,2.1-14.9,6.2c-4,4.1-6.1,9.3-6.1,15.4c0,4,0.9,7.7,2.7,10.9c1.8,3.2,4.4,5.8,7.8,7.7s6.9,2.8,10.6,2.8
			c3.7,0,7.1-0.9,10.4-2.8s5.8-4.6,7.7-8c1.9-3.4,2.9-7,2.9-10.7c0-3.8-1-7.3-2.9-10.7s-4.5-6-7.7-7.9S297.6,64.1,293.8,64.1z"/>
		<path class="st2" d="M334.6,58.9h6.8v9.5c2.7-3.7,5.8-6.4,9.1-8.2s6.9-2.7,10.8-2.7c4,0,7.5,1,10.6,3c3.1,2,5.4,4.7,6.8,8.1
			c1.5,3.4,2.2,8.7,2.2,16V112h-6.8V86.6c0-6.1-0.2-10.2-0.8-12.3c-0.8-3.5-2.3-6.2-4.6-7.9c-2.2-1.8-5.2-2.7-8.8-2.7
			c-4.1,0-7.8,1.4-11.1,4.1s-5.4,6.1-6.5,10.2c-0.6,2.6-1,7.5-1,14.4V112h-6.8L334.6,58.9L334.6,58.9z"/>
		<path class="st2" d="M395.7,58.9h6.8v9.8c2.7-3.7,5.8-6.5,9.3-8.3c3.5-1.9,7.4-2.8,11.8-2.8c7.5,0,14,2.7,19.4,8.1
			c5.4,5.4,8,12,8,19.6c0,7.8-2.7,14.4-8,19.9c-5.3,5.4-11.7,8.2-19.2,8.2c-4.2,0-8.1-0.9-11.7-2.6s-6.8-4.4-9.6-7.9v28.6h-6.8V58.9
			z M423,64.1c-5.9,0-10.9,2.1-14.9,6.2c-4,4.1-6.1,9.3-6.1,15.4c0,4,0.9,7.7,2.7,10.9c1.8,3.2,4.4,5.8,7.8,7.7s6.9,2.8,10.6,2.8
			c3.7,0,7.1-0.9,10.4-2.8s5.8-4.6,7.7-8c1.9-3.4,2.9-7,2.9-10.7c0-3.8-1-7.3-2.9-10.7s-4.5-6-7.7-7.9S426.8,64.1,423,64.1z"/>
	</g>
	<rect x="233.1" y="58.2" class="st3" width="0.6" height="0.6"/>
</g>
</svg>
